<svg width="30" height="30" viewBox="0 0 30 30" fill="none" xmlns="http://www.w3.org/2000/svg">
<path d="M12.9355 1.91245C13.1972 1.62503 13.5159 1.39541 13.8714 1.23828C14.2269 1.08116 14.6113 1 15 1C15.3887 1 15.7731 1.08116 16.1286 1.23828C16.4841 1.39541 16.8028 1.62503 17.0645 1.91245L18.4882 3.47581C18.7647 3.77929 19.1047 4.01807 19.4839 4.17514C19.8632 4.33221 20.2725 4.4037 20.6825 4.38451L22.7945 4.2868C23.1826 4.26852 23.5702 4.33144 23.9326 4.47154C24.2949 4.61165 24.6241 4.82585 24.8989 5.10044C25.1738 5.37503 25.3883 5.70398 25.5288 6.06622C25.6692 6.42847 25.7325 6.81604 25.7146 7.20414L25.6155 9.31747C25.5963 9.72754 25.6678 10.1368 25.8249 10.5161C25.9819 10.8953 26.2207 11.2353 26.5242 11.5118L28.0875 12.9355C28.375 13.1972 28.6046 13.5159 28.7617 13.8714C28.9188 14.2269 29 14.6113 29 15C29 15.3887 28.9188 15.7731 28.7617 16.1286C28.6046 16.4841 28.375 16.8028 28.0875 17.0645L26.5242 18.4882C26.2207 18.7647 25.9819 19.1047 25.8249 19.4839C25.6678 19.8632 25.5963 20.2725 25.6155 20.6825L25.7132 22.7945C25.7315 23.1826 25.6686 23.5702 25.5285 23.9326C25.3884 24.2949 25.1742 24.6241 24.8996 24.8989C24.625 25.1738 24.296 25.3883 23.9338 25.5288C23.5715 25.6692 23.184 25.7325 22.7959 25.7146L20.6825 25.6155C20.2725 25.5963 19.8632 25.6678 19.4839 25.8249C19.1047 25.9819 18.7647 26.2207 18.4882 26.5242L17.0645 28.0875C16.8028 28.375 16.4841 28.6046 16.1286 28.7617C15.7731 28.9188 15.3887 29 15 29C14.6113 29 14.2269 28.9188 13.8714 28.7617C13.5159 28.6046 13.1972 28.375 12.9355 28.0875L11.5118 26.5242C11.2353 26.2207 10.8953 25.9819 10.5161 25.8249C10.1368 25.6678 9.72754 25.5963 9.31747 25.6155L7.20554 25.7132C6.81745 25.7315 6.42982 25.6686 6.06744 25.5285C5.70506 25.3884 5.37591 25.1742 5.10106 24.8996C4.8262 24.625 4.61169 24.296 4.47124 23.9338C4.33079 23.5715 4.26749 23.184 4.28541 22.7959L4.38451 20.6825C4.4037 20.2725 4.33221 19.8632 4.17514 19.4839C4.01807 19.1047 3.77929 18.7647 3.47581 18.4882L1.91245 17.0645C1.62503 16.8028 1.39541 16.4841 1.23828 16.1286C1.08116 15.7731 1 15.3887 1 15C1 14.6113 1.08116 14.2269 1.23828 13.8714C1.39541 13.5159 1.62503 13.1972 1.91245 12.9355L3.47581 11.5118C3.77929 11.2353 4.01807 10.8953 4.17514 10.5161C4.33221 10.1368 4.4037 9.72754 4.38451 9.31747L4.2868 7.20554C4.26852 6.81745 4.33144 6.42982 4.47154 6.06744C4.61165 5.70506 4.82585 5.37591 5.10044 5.10106C5.37503 4.8262 5.70398 4.61169 6.06622 4.47124C6.42847 4.33079 6.81604 4.26749 7.20414 4.28541L9.31747 4.38451C9.72754 4.4037 10.1368 4.33221 10.5161 4.17514C10.8953 4.01807 11.2353 3.77929 11.5118 3.47581L12.9355 1.91245Z" stroke="#E64376" stroke-width="1.5"/>
<path d="M10.812 14.9997L13.6037 17.7914L19.1871 12.208" stroke="#E64376" stroke-width="1.5" stroke-linecap="round" stroke-linejoin="round"/>
</svg>
